<svg id="Layer_1" data-name="Layer 1" xmlns="http://www.w3.org/2000/svg" viewBox="0 0 311.38 80.75"><defs><style>.cls-1{isolation:isolate;}.cls-2{fill:#ff922b;}</style></defs><title>logo</title><path d="M26.1,0c.87.27,1.75.52,2.61.81,1.71.58,3.42,1.12,5.12,1.81a1.58,1.58,0,0,1,1,1.72c-.21,1.89.36,2.75,2.17,3.44a4.05,4.05,0,0,1,2.13,1.88.51.51,0,0,1-.27.81c-.39.14-.45.4-.55.74a3.86,3.86,0,0,1-.48,1.08,2.63,2.63,0,0,0-.51,1.64c0,.46,0,.78-.58.89s-.5.57-.53,1A1.18,1.18,0,0,1,35.27,17c-.47.13-1,.14-1.46.22a.88.88,0,0,0-.66.24.72.72,0,0,0,.14.67,8.85,8.85,0,0,0,.72.89c.65.79,1.33,1.57,2,2.38a6.91,6.91,0,0,0,2.41,2,2.46,2.46,0,0,0,1.76,0,7.07,7.07,0,0,1,1-.24,1.74,1.74,0,0,1,1.71.54c.64.75,1.15.68,1.64-.2a1.6,1.6,0,0,1,1.5-1,1.28,1.28,0,0,0,1.16-1c.48-1.4.94-2.8,1.42-4.2a4.84,4.84,0,0,1,.26-.64,1,1,0,0,1,1.34-.46h0a1,1,0,0,1,.54,1.19c-.46,1.68-1,3.35-1.38,5a7.18,7.18,0,0,0-.07,1.81,3.71,3.71,0,0,1-.93,3.13,3,3,0,0,0-.67,1.34c-1.13,4-2.26,7.9-3.34,11.86q-.92,3.34-1.72,6.74c-.6,2.51-1.15,5-1.72,7.55-.32,1.38-.63,2.76-1,4.13a.41.41,0,0,0,.22.54h0a3.3,3.3,0,0,0,3.26,0,1.73,1.73,0,0,1,2.16.37c.63.59,1.29,1.16,1.94,1.73a.54.54,0,0,1,.16.71l-2.49,5.16a.74.74,0,0,0-.07.48l2-1.7.23-.19c1.27-.78.91-.83,2.13,0s2.53,1.8,3.78,2.71a4.15,4.15,0,0,1,1.47,2.47c.36,1.4.71,2.8,1,4.22A11.73,11.73,0,0,1,56,77.39a.6.6,0,0,1-.27.47,11.63,11.63,0,0,1-4.19,1.23,1,1,0,0,1-1-.62q-.67-1.42-1.27-2.85A13.4,13.4,0,0,0,47,71.82c-.17-.19-.32-.4-.42-.52.35.89.76,1.84,1.1,2.82.27.79.46,1.61.67,2.42a.86.86,0,0,1-.7,1h0c-1,.23-2.11.39-3.13.7-1.29.39-2.54.9-3.8,1.37-.63.24-1.26.48-1.87.76a2.24,2.24,0,0,1-2.23-.3c-1-.57-2-1-3-1.53-1.21-.6-1.83-1-1.78-2.6a22,22,0,0,1,.36-2.88c-.31.52-.69,1.1-1,1.71q-.93,1.86-1.79,3.75c-.32.7-.46.86-1.22.82s-1.76-.13-2.64-.19a12.83,12.83,0,0,0-3.42.54,9.12,9.12,0,0,1-1.73.16,1.69,1.69,0,0,1-1.16-.69,1.49,1.49,0,0,0-1.3-.61h-.2l-4.4.89c-1.26.26-2.51.53-3.77.77-1.07.2-2.14.42-3.22.53a9.74,9.74,0,0,1-3.66-.57c-.76-.21-1.5-.49-2.25-.71A.51.51,0,0,1,0,78.93a8.83,8.83,0,0,1,1.75-5.36c.78-1.09,1-1.17,2.73-.51a8.36,8.36,0,0,0,3.28.66c1,0,2,.12,3,.18h.15c.92.65,1.56-.11,2.33-.41a3.93,3.93,0,0,0-1.63-1.66,9.3,9.3,0,0,1-2.08-1.77,1.57,1.57,0,0,1-.23-1.24,8.71,8.71,0,0,1,1.91-3.31,5,5,0,0,0,.92-2.41c.21-1.25.43-2.51.55-3.77.23-2.37,1.39-4.45,2-6.7a18.24,18.24,0,0,0,.69-4.29c0-1.7.19-3.41.18-5.11a12,12,0,0,0-.71-4,3,3,0,0,1,0-1.3A18.84,18.84,0,0,1,15.37,35a17.66,17.66,0,0,1,1.06-2.32c-.41-.07-.93-.13-1.43-.26s-1.19-.38-1.77-.6-1-1-1.35-1.53a3.28,3.28,0,0,1-.33-3.11c.82-2.34,1.5-4.73,2.31-7.08,1.16-3.41,2.39-6.79,3.58-10.19A2.41,2.41,0,0,1,19.93,8.2h.65a13.78,13.78,0,0,1,.82-6.62A1.43,1.43,0,0,1,22.55.7L25.29,0ZM32,44.75a12,12,0,0,0-1.36-.5,32.72,32.72,0,0,0-3.23-.68c-.68-.1-1.47-.33-2,.37a6.07,6.07,0,0,0-.8,1.11c-.38.8-.68,1.64-1,2.46a31,31,0,0,0-1.39,3.68,9.19,9.19,0,0,1-1.41,3.29,2.31,2.31,0,0,0-.27.41c-.82,1.89-1.71,3.75-2.42,5.67s-1.23,3.88-1.8,5.83a3.35,3.35,0,0,0-.19,1.5c.2,1,.56,2,.86,3,1.12.05,2.2.23,2.62,1.54a.74.74,0,0,0,.47.37c.73.19,1.47.35,2.21.48a.68.68,0,0,0,.56-.22A17.59,17.59,0,0,0,24,71.21c.53-1,1.07-2,2.39-2.19a3.39,3.39,0,0,0,.43-.11c.31,0,.4-.21.39-.52V65.26c0-1.19.07-1.27,1.19-1.65a5.85,5.85,0,0,1,.84-.29C30.71,63.07,31.4,62,32,60.84a9.2,9.2,0,0,0-.79-.91,4.23,4.23,0,0,0-1.4-1.1,4.62,4.62,0,0,1-2.35-1.49,2.39,2.39,0,0,1-.76-1.67A5,5,0,0,1,28,52.8a9.51,9.51,0,0,0,1.2-1.57C30.17,49.12,31.06,46.93,32,44.75ZM37.4,59c.41-1.88.79-3.76,1.22-5.64.51-2.19,1-4.38,1.62-6.56.51-1.87,1.18-3.69,1.69-5.56,1-3.74,2-7.5,2.94-11.25a15,15,0,0,0,.31-1.85c0-.31-.1-.4-.43-.3a2.56,2.56,0,0,0-1.67,1.44,1.62,1.62,0,0,1-1.25,1.11,5.64,5.64,0,0,1-.59.09c-.86,0-1.75.25-2.49-.51a2.45,2.45,0,0,0-1.54-.58c-1.18-.13-2.36-.27-3.53-.48a2.68,2.68,0,0,0-2.73,1.27c-.37.77-.69,1.57-1.09,2.33s-.74,1.25-1.12,1.89l.41.15c1.12.44,2.25.82,3.34,1.32,2,.91,3.93,1.87,5.89,2.83a2.89,2.89,0,0,1,1,.6,3.39,3.39,0,0,1,.7,3.12,13.7,13.7,0,0,1-1.38,3.1c-1.61,2.74-3.31,5.43-5,8.15a.9.9,0,0,0,0,.68c.28.77.61,1.53.93,2.28a2.18,2.18,0,0,0,1.83,1.59,1,1,0,0,1,1,.78Z" transform="translate(0 0)"/><g class="cls-1"><g class="cls-1"><path d="M95.86,31.05H86.1v25.1H82.52V31.05H72.76V27.86H95.86Z" transform="translate(0 0)"/></g><g class="cls-1"><path d="M110.32,38.42a9,9,0,0,0-4.64,1.35,6.91,6.91,0,0,0-2.85,3.55V56.15H99.33V35.35h3.27v4.82a10.6,10.6,0,0,1,2.83-3.57,5.86,5.86,0,0,1,3.75-1.41h.68a2.49,2.49,0,0,1,.48,0Z" transform="translate(0 0)"/></g><g class="cls-1"><path d="M119,56.55a8,8,0,0,1-2.87-.5,7.16,7.16,0,0,1-2.27-1.35,6.12,6.12,0,0,1-1.49-2,5.91,5.91,0,0,1-.54-2.49,5.7,5.7,0,0,1,.64-2.69,6,6,0,0,1,1.81-2.07,8.75,8.75,0,0,1,2.79-1.31,12.9,12.9,0,0,1,3.53-.46,17.38,17.38,0,0,1,3.07.28,14.09,14.09,0,0,1,2.75.76V43a5,5,0,0,0-5.5-5.46A11.63,11.63,0,0,0,114.31,40l-1.16-2.27a17.41,17.41,0,0,1,4-2,12.79,12.79,0,0,1,4.14-.68,8.78,8.78,0,0,1,6.29,2.19,8.1,8.1,0,0,1,2.31,6.17v8.49q0,1.23,1.12,1.27v3q-.4.08-.76.12a6.2,6.2,0,0,1-.68,0,3.42,3.42,0,0,1-1.71-.48A1.89,1.89,0,0,1,127,54.2l-.08-1.47a8.9,8.9,0,0,1-1.63,1.67,9.9,9.9,0,0,1-2,1.2,10.34,10.34,0,0,1-2.13.72A10.18,10.18,0,0,1,119,56.55Zm.88-2.63a7.88,7.88,0,0,0,3.27-.72,7.26,7.26,0,0,0,2.51-1.75,2.59,2.59,0,0,0,.76-1.63V46.75a15,15,0,0,0-2.61-.74,14.37,14.37,0,0,0-2.65-.26,7.68,7.68,0,0,0-4.34,1.1,3.44,3.44,0,0,0-1.63,3,3.86,3.86,0,0,0,1.23,2.83,4.51,4.51,0,0,0,1.47.9A5.5,5.5,0,0,0,119.89,53.92Z" transform="translate(0 0)"/></g><g class="cls-1"><path d="M140.84,56.15l-8.21-20.8h3.63l6.57,17.73,6.61-17.73h3.35l-8.21,20.8Z" transform="translate(0 0)"/><path d="M165.39,56.55a10.6,10.6,0,0,1-4.3-.86,10.17,10.17,0,0,1-3.35-2.33,10.61,10.61,0,0,1-2.17-3.45,11.26,11.26,0,0,1-.78-4.16,11.11,11.11,0,0,1,.78-4.14A10.41,10.41,0,0,1,165.43,35a10.11,10.11,0,0,1,9.66,6.59,11.15,11.15,0,0,1,.74,4c0,.29,0,.56,0,.8a4.3,4.3,0,0,1-.06.56H158.49a8.07,8.07,0,0,0,.72,2.83A7.27,7.27,0,0,0,160.76,52a7.16,7.16,0,0,0,2.17,1.43,6.48,6.48,0,0,0,2.57.52,6.85,6.85,0,0,0,1.87-.26,8.06,8.06,0,0,0,1.71-.7,5.93,5.93,0,0,0,1.41-1.08,4.38,4.38,0,0,0,.94-1.43l3,.84a7.66,7.66,0,0,1-1.42,2.11A9.33,9.33,0,0,1,171,55.05a10.7,10.7,0,0,1-2.61,1.1A11.11,11.11,0,0,1,165.39,56.55Zm7.13-12.19a7.51,7.51,0,0,0-.74-2.73,7.31,7.31,0,0,0-1.55-2.13,7.12,7.12,0,0,0-7.43-1.37,6.76,6.76,0,0,0-2.17,1.39,7.06,7.06,0,0,0-1.51,2.13,7.81,7.81,0,0,0-.7,2.71Z" transform="translate(0 0)"/><path d="M179.73,27.07h3.51V50.77a2.54,2.54,0,0,0,.62,1.81,2.26,2.26,0,0,0,1.73.66,4.61,4.61,0,0,0,1-.14,8.26,8.26,0,0,0,1.12-.34l.56,2.83a11.37,11.37,0,0,1-2.07.6,10.94,10.94,0,0,1-2.11.24,4.37,4.37,0,0,1-3.21-1.16A4.32,4.32,0,0,1,179.73,52Z" transform="translate(0 0)"/></g><g class="cls-1"><path class="cls-2" d="M213.8,48.86a6.42,6.42,0,0,1-2.69,5.42,9.22,9.22,0,0,1-2.91,1.39,12.62,12.62,0,0,1-3.53.48H191V27.86h15.14a5.59,5.59,0,0,1,2.67.64,6.67,6.67,0,0,1,2,1.65,7.58,7.58,0,0,1,1.29,2.31,7.79,7.79,0,0,1,.46,2.61,7.7,7.7,0,0,1-1,3.88,6.31,6.31,0,0,1-3,2.69,7.27,7.27,0,0,1,3.84,2.57A7.43,7.43,0,0,1,213.8,48.86ZM196.51,32.56V39.7h7.33a3.26,3.26,0,0,0,2.37-1,3.51,3.51,0,0,0,1-2.63,3.64,3.64,0,0,0-.9-2.59,2.91,2.91,0,0,0-2.21-1Zm11.75,15.26a4.16,4.16,0,0,0-.26-1.45,4.05,4.05,0,0,0-.7-1.22,3.26,3.26,0,0,0-1-.82A2.9,2.9,0,0,0,205,44h-8.45v7.45h8.17a3.58,3.58,0,0,0,1.42-.28,3.38,3.38,0,0,0,1.13-.78,3.79,3.79,0,0,0,1-2.61Z" transform="translate(0 0)"/></g><g class="cls-1"><path class="cls-2" d="M223.64,56.55a5.93,5.93,0,0,1-4.9-2.07q-1.67-2.07-1.67-6.14V35.27h5.34V47.19q0,4.82,3.47,4.82a5.54,5.54,0,0,0,3-.94,6.73,6.73,0,0,0,2.37-2.85V35.27h5.34V50a1.79,1.79,0,0,0,.32,1.2,1.55,1.55,0,0,0,1.12.4v4.54c-.56.11-1,.18-1.47.22s-.8.06-1.12.06a3.49,3.49,0,0,1-2.25-.66,2.85,2.85,0,0,1-1-1.81l-.12-1.71a9.21,9.21,0,0,1-3.61,3.23A10.75,10.75,0,0,1,223.64,56.55Z" transform="translate(0 0)"/><path class="cls-2" d="M250.7,56.55a9.34,9.34,0,0,1-4-.84,9.44,9.44,0,0,1-3.13-2.31A10.81,10.81,0,0,1,241.55,50a12,12,0,0,1-.74-4.24,12.47,12.47,0,0,1,.7-4.22,11.09,11.09,0,0,1,1.93-3.43,8.92,8.92,0,0,1,2.95-2.31,8.42,8.42,0,0,1,3.75-.84A7.84,7.84,0,0,1,254.26,36a8.09,8.09,0,0,1,2.89,2.91V27.07h5.34V50a1.79,1.79,0,0,0,.32,1.2,1.55,1.55,0,0,0,1.12.4v4.54a14.54,14.54,0,0,1-2.55.28,3.83,3.83,0,0,1-2.29-.68,2.78,2.78,0,0,1-1-1.79l-.12-1.43a7.61,7.61,0,0,1-3.11,3A8.86,8.86,0,0,1,250.7,56.55ZM252.09,52a5,5,0,0,0,1.55-.26,5.48,5.48,0,0,0,1.47-.74,7,7,0,0,0,1.24-1.12,4.46,4.46,0,0,0,.84-1.39v-5A6.54,6.54,0,0,0,255,40.61a5.26,5.26,0,0,0-3.21-1.16,4.81,4.81,0,0,0-2.21.52,5.26,5.26,0,0,0-1.73,1.41,6.82,6.82,0,0,0-1.12,2.05,7.28,7.28,0,0,0-.4,2.39,6.57,6.57,0,0,0,.44,2.43,6.13,6.13,0,0,0,1.21,2,5.66,5.66,0,0,0,1.83,1.32A5.49,5.49,0,0,0,252.09,52Z" transform="translate(0 0)"/></g><g class="cls-1"><path class="cls-2" d="M275.8,56.55a9.34,9.34,0,0,1-4-.84,9.44,9.44,0,0,1-3.13-2.31A10.81,10.81,0,0,1,266.65,50a12,12,0,0,1-.74-4.24,12.47,12.47,0,0,1,.7-4.22,11.09,11.09,0,0,1,1.93-3.43,8.92,8.92,0,0,1,2.95-2.31,8.42,8.42,0,0,1,3.75-.84A7.84,7.84,0,0,1,279.36,36a8.09,8.09,0,0,1,2.89,2.91V27.07h5.34V50a1.79,1.79,0,0,0,.32,1.2,1.55,1.55,0,0,0,1.12.4v4.54a14.54,14.54,0,0,1-2.55.28,3.83,3.83,0,0,1-2.29-.68,2.78,2.78,0,0,1-1-1.79L283,52.52a7.61,7.61,0,0,1-3.11,3A8.86,8.86,0,0,1,275.8,56.55ZM277.19,52a5,5,0,0,0,1.55-.26,5.48,5.48,0,0,0,1.47-.74,7,7,0,0,0,1.24-1.12,4.46,4.46,0,0,0,.84-1.39v-5a6.54,6.54,0,0,0-2.21-2.91,5.26,5.26,0,0,0-3.21-1.16,4.81,4.81,0,0,0-2.21.52,5.26,5.26,0,0,0-1.73,1.41,6.82,6.82,0,0,0-1.12,2.05,7.28,7.28,0,0,0-.4,2.39,6.57,6.57,0,0,0,.44,2.43,6.13,6.13,0,0,0,1.21,2,5.66,5.66,0,0,0,1.83,1.32A5.49,5.49,0,0,0,277.19,52Z" transform="translate(0 0)"/></g><g class="cls-1"><path class="cls-2" d="M292.81,60.21a9.86,9.86,0,0,0,1.31.28,8,8,0,0,0,1,.08,2.22,2.22,0,0,0,.92-.18,2.18,2.18,0,0,0,.78-.66,6.27,6.27,0,0,0,.76-1.33,22.59,22.59,0,0,0,.82-2.25l-8.29-20.88h5.5l5.7,16.25,5-16.25h5l-8.8,25A7.32,7.32,0,0,1,299.9,64a7.2,7.2,0,0,1-4.26,1.29,9.64,9.64,0,0,1-2.83-.44Z" transform="translate(0 0)"/></g></g></svg>